<svg width="24" height="24" viewBox="0 0 24 24" fill="none" xmlns="http://www.w3.org/2000/svg">
<path d="M19.4783 12.1688L17.2002 11.339C17.1299 11.3109 17.0455 11.2969 16.9612 11.2969H2.36426C1.97046 11.2969 1.66113 11.6062 1.66113 12V21.8906C1.66113 23.0578 2.60328 24 3.77051 24H17.833C19.0003 24 19.9424 23.0578 19.9424 21.8906V12.8296C19.9424 12.5344 19.7596 12.2672 19.4783 12.1688Z" fill="#FC1A40"/>
<path d="M19.9424 12.8296V21.8906C19.9424 23.0578 19.0003 24 17.833 24H10.8018V11.2969H16.9611C17.0455 11.2969 17.1299 11.3109 17.2002 11.339L19.4783 12.1688C19.7595 12.2672 19.9424 12.5344 19.9424 12.8296Z" fill="#C60034"/>
<path d="M19.6894 4.58381C19.4504 3.6135 18.7331 2.85417 17.7628 2.54475C16.8066 2.24939 15.78 2.46037 15.0347 3.13533L13.4034 4.56975L13.08 2.41823C12.9253 1.43385 12.2925 0.604118 11.3504 0.210414C11.1676 0.140054 10.9847 0.0838041 10.8019 0.055679C10.0285 -0.0990088 9.22693 0.0697415 8.58 0.547914C7.72219 1.16667 7.2863 2.20729 7.42688 3.24787C7.58161 4.2885 8.28474 5.17444 9.28313 5.526L10.8019 6.07444L12.6722 6.7635C12.6863 6.7635 12.6863 6.7635 12.6863 6.7635L15.9348 7.95877C16.2581 8.07132 16.5956 8.12762 16.9191 8.12762C17.6082 8.12762 18.2832 7.8744 18.8176 7.39632C19.605 6.69319 19.9425 5.61033 19.6894 4.58381Z" fill="#FE9923"/>
<path d="M18.8174 7.39635C18.283 7.87443 17.608 8.12765 16.9189 8.12765C16.5955 8.12765 16.258 8.07135 15.9346 7.95881L12.6861 6.76354C12.6861 6.76354 12.6861 6.76354 12.6721 6.76354L10.8018 6.07447V0.0556641C10.9846 0.083836 11.1674 0.140039 11.3502 0.210399C12.2923 0.604103 12.9252 1.43384 13.0798 2.41822L13.4032 4.56974L15.0345 3.13531C15.7798 2.46036 16.8064 2.24937 17.7627 2.54473C18.733 2.85415 19.4502 3.61348 19.6892 4.5838C19.9424 5.61036 19.6049 6.69322 18.8174 7.39635Z" fill="#FE8821"/>
<path d="M22.3468 10.9733L21.3906 13.6171C21.278 13.8983 21.0109 14.0671 20.7296 14.0671C20.6452 14.0671 20.5609 14.053 20.4906 14.0249L13.2202 11.3812L12.5593 9.20149L10.8015 9.5952L9.25468 9.94676L1.98431 7.30301C1.61868 7.16243 1.43592 6.75457 1.56243 6.403L2.53275 3.75934C2.71556 3.22497 3.10936 2.803 3.61561 2.56398C4.12186 2.32496 4.69838 2.29679 5.23275 2.49367L10.8016 4.51867L11.1813 4.65925C11.1813 4.65925 12.7 7.41555 12.7422 7.41555C12.7704 7.41555 13.375 7.07805 13.9657 6.75457C14.5562 6.43113 15.1468 6.09367 15.1468 6.09367L21.0812 8.25926C21.6155 8.45613 22.0374 8.84993 22.2764 9.35618C22.5156 9.86239 22.5437 10.439 22.3468 10.9733Z" fill="#FF3E75"/>
<path d="M22.3471 10.9732L21.3908 13.617C21.2783 13.8982 21.0111 14.067 20.7299 14.067C20.6455 14.067 20.5611 14.0529 20.4908 14.0248L13.2205 11.3811L12.5596 9.20138L10.8018 9.59508V4.51855L11.1815 4.65913C11.1815 4.65913 12.7002 7.41544 12.7424 7.41544C12.7706 7.41544 13.3752 7.07793 13.9659 6.75445C14.5564 6.43101 15.1471 6.09356 15.1471 6.09356L21.0814 8.25914C21.6158 8.45602 22.0377 8.84981 22.2767 9.35606C22.5158 9.86227 22.5439 10.4389 22.3471 10.9732Z" fill="#FC1A40"/>
<path d="M8.69238 11.2969V24H12.9111V11.2969H8.69238Z" fill="#FCBF29"/>
<path d="M11.1814 4.65918L10.8017 5.69981L9.25488 9.94674L10.8017 10.5093L12.5595 11.1421L13.2204 11.3811L15.1471 6.0936L11.1814 4.65918Z" fill="#FCBF29"/>
<path d="M12.9111 11.2969H10.8018V24H12.9111V11.2969Z" fill="#FE9923"/>
<path d="M15.1471 6.0936L13.2205 11.3811L12.5596 11.1421L10.8018 10.5092V5.69981L11.1814 4.65918L15.1471 6.0936Z" fill="#FE9923"/>
</svg>
