<svg width="22" height="19" viewBox="0 0 22 19" fill="none" xmlns="http://www.w3.org/2000/svg">
<path d="M16.1163 18.9302H5.88372C2.14884 18.9302 0 16.7814 0 13.0465V5.88372C0 2.14884 2.14884 0 5.88372 0H16.1163C19.8512 0 22 2.14884 22 5.88372V13.0465C22 16.7814 19.8512 18.9302 16.1163 18.9302ZM5.88372 1.53488C2.95721 1.53488 1.53488 2.95721 1.53488 5.88372V13.0465C1.53488 15.973 2.95721 17.3953 5.88372 17.3953H16.1163C19.0428 17.3953 20.4651 15.973 20.4651 13.0465V5.88372C20.4651 2.95721 19.0428 1.53488 16.1163 1.53488H5.88372Z" fill="#A89E9E"/>
<path d="M10.9998 10.3553C10.1402 10.3553 9.27047 10.0893 8.60536 9.54695L5.40256 6.98881C5.07512 6.72276 5.01373 6.24183 5.27978 5.91439C5.54582 5.58694 6.02676 5.52555 6.3542 5.7916L9.55698 8.34974C10.3347 8.97393 11.6546 8.97393 12.4323 8.34974L15.6351 5.7916C15.9626 5.52555 16.4537 5.57671 16.7095 5.91439C16.9756 6.24183 16.9244 6.73299 16.5868 6.98881L13.384 9.54695C12.7291 10.0893 11.8593 10.3553 10.9998 10.3553Z" fill="#A89E9E"/>
</svg>
