<svg width="9" height="9" viewBox="0 0 9 9" fill="none" xmlns="http://www.w3.org/2000/svg">
<path d="M4.63852 8.99092C4.61251 8.99092 4.59517 8.99092 4.56916 8.99092C4.52581 8.98225 4.46512 8.98225 4.4131 8.99092C1.89876 8.91289 0 6.9361 0 4.4998C0 2.02014 2.02014 0 4.4998 0C6.97945 0 8.9996 2.02014 8.9996 4.4998C8.99093 6.9361 7.0835 8.91289 4.66453 8.99092C4.65586 8.99092 4.64719 8.99092 4.63852 8.99092ZM4.4998 1.30052C2.73976 1.30052 1.30052 2.73976 1.30052 4.4998C1.30052 6.23382 2.65306 7.62971 4.37842 7.6904C4.42177 7.68173 4.54315 7.68173 4.65586 7.6904C6.35521 7.61237 7.6904 6.21648 7.69907 4.4998C7.69907 2.73976 6.25983 1.30052 4.4998 1.30052Z" fill="#774000"/>
</svg>
