<svg width="28" height="28" viewBox="0 0 28 28" fill="none" xmlns="http://www.w3.org/2000/svg">
<g clip-path="url(#clip0_253_24867)">
<path d="M10.2666 18.0225L11.6888 10.0225H13.911L12.5333 18.0225H10.2666Z" fill="#3C58BF"/>
<path d="M10.2666 18.0225L12.0888 10.0225H13.911L12.5333 18.0225H10.2666Z" fill="#293688"/>
<path d="M20.5773 10.1114C20.1329 9.93364 19.4218 9.75586 18.5329 9.75586C16.3107 9.75586 14.7107 10.867 14.7107 12.467C14.7107 13.667 15.8218 14.2892 16.7107 14.6892C17.5996 15.0892 17.8662 15.3559 17.8662 15.7114C17.8662 16.2447 17.1551 16.5114 16.5329 16.5114C15.644 16.5114 15.1551 16.3781 14.3996 16.067L14.0885 15.9336L13.7773 17.7559C14.3107 17.9781 15.2885 18.2003 16.3107 18.2003C18.6662 18.2003 20.2218 17.0892 20.2218 15.4003C20.2218 14.467 19.644 13.7559 18.3107 13.1781C17.5107 12.7781 17.0218 12.5559 17.0218 12.1559C17.0218 11.8003 17.4218 11.4447 18.3107 11.4447C19.0662 11.4447 19.5996 11.5781 19.9996 11.7559L20.2218 11.8447L20.5773 10.1114Z" fill="#3C58BF"/>
<path d="M20.5773 10.1114C20.1329 9.93364 19.4218 9.75586 18.5329 9.75586C16.3107 9.75586 15.1107 10.867 15.1107 12.467C15.1107 13.667 15.8218 14.2892 16.7107 14.6892C17.5996 15.0892 17.8662 15.3559 17.8662 15.7114C17.8662 16.2447 17.1551 16.5114 16.5329 16.5114C15.644 16.5114 15.1551 16.3781 14.3996 16.067L14.0885 15.9336L13.7773 17.7559C14.3107 17.9781 15.2885 18.2003 16.3107 18.2003C18.6662 18.2003 20.2218 17.0892 20.2218 15.4003C20.2218 14.467 19.644 13.7559 18.3107 13.1781C17.5107 12.7781 17.0218 12.5559 17.0218 12.1559C17.0218 11.8003 17.4218 11.4447 18.3107 11.4447C19.0662 11.4447 19.5996 11.5781 19.9996 11.7559L20.2218 11.8447L20.5773 10.1114Z" fill="#293688"/>
<path d="M24.4 10.0225C23.8667 10.0225 23.4667 10.0669 23.2445 10.6002L19.9111 18.0225H22.3111L22.7556 16.6891H25.6L25.8667 18.0225H28L26.1334 10.0225H24.4ZM23.3778 15.3558C23.5111 14.9558 24.2667 13.0002 24.2667 13.0002C24.2667 13.0002 24.4445 12.5114 24.5778 12.2002L24.7111 12.9558C24.7111 12.9558 25.1556 14.9558 25.2445 15.4002H23.3778V15.3558Z" fill="#3C58BF"/>
<path d="M24.9334 10.0225C24.4 10.0225 24 10.0669 23.7778 10.6002L19.9111 18.0225H22.3111L22.7556 16.6891H25.6L25.8667 18.0225H28L26.1334 10.0225H24.9334ZM23.3778 15.3558C23.5556 14.9113 24.2667 13.0002 24.2667 13.0002C24.2667 13.0002 24.4445 12.5114 24.5778 12.2002L24.7111 12.9558C24.7111 12.9558 25.1556 14.9558 25.2445 15.4002H23.3778V15.3558Z" fill="#293688"/>
<path d="M6.17806 15.622L5.95584 14.4664C5.55584 13.1331 4.26695 11.6664 2.84473 10.9553L4.84473 18.0664H7.24473L10.8447 10.0664H8.44473L6.17806 15.622Z" fill="#3C58BF"/>
<path d="M6.17806 15.622L5.95584 14.4664C5.55584 13.1331 4.26695 11.6664 2.84473 10.9553L4.84473 18.0664H7.24473L10.8447 10.0664H8.88917L6.17806 15.622Z" fill="#293688"/>
<path d="M0 10.0225L0.4 10.1114C3.24444 10.778 5.2 12.4669 5.95556 14.4669L5.15556 10.6891C5.02222 10.1558 4.62222 10.0225 4.13333 10.0225H0Z" fill="#FFBC00"/>
<path d="M0 10.0225C2.84444 10.6891 5.2 12.4225 5.95556 14.4225L5.2 11.2669C5.06667 10.7336 4.62222 10.4225 4.13333 10.4225L0 10.0225Z" fill="#F7981D"/>
<path d="M0 10.0225C2.84444 10.6891 5.2 12.4225 5.95556 14.4225L5.42222 12.6891C5.28889 12.1558 5.11111 11.6225 4.48889 11.4002L0 10.0225Z" fill="#ED7C00"/>
<path d="M8.39978 15.3556L6.88867 13.8445L6.17756 15.5334L5.99978 14.4222C5.59978 13.0889 4.31089 11.6222 2.88867 10.9111L4.88867 18.0222H7.28867L8.39978 15.3556Z" fill="#051244"/>
<path d="M12.5333 18.022L10.6222 16.0664L10.2666 18.022H12.5333Z" fill="#051244"/>
<path d="M17.644 15.2666C17.8218 15.4444 17.9107 15.5777 17.8662 15.7555C17.8662 16.2888 17.1551 16.5555 16.5329 16.5555C15.644 16.5555 15.1551 16.4222 14.3996 16.111L14.0885 15.9777L13.7773 17.7999C14.3107 18.0222 15.2885 18.2444 16.3107 18.2444C17.7329 18.2444 18.8885 17.8444 19.5551 17.1333L17.644 15.2666Z" fill="#051244"/>
<path d="M20.2217 18.0224H22.3106L22.755 16.6891H25.5995L25.8661 18.0224H27.9995L27.2439 14.778L24.5772 12.2002L24.7106 12.9113C24.7106 12.9113 25.155 14.9113 25.2439 15.3558H23.3772C23.555 14.9113 24.2661 13.0002 24.2661 13.0002C24.2661 13.0002 24.4439 12.5113 24.5772 12.2002" fill="#051244"/>
</g>
<defs>
<clipPath id="clip0_253_24867">
<rect width="28" height="28" fill="white"/>
</clipPath>
</defs>
</svg>
