<svg width="9" height="18" viewBox="0 0 9 18" fill="none" xmlns="http://www.w3.org/2000/svg">
<path d="M0.776046 0.000405938C0.57879 0.000405938 0.381534 0.0730788 0.225806 0.228807C-0.0752687 0.529882 -0.0752687 1.02821 0.225806 1.32929L6.9948 8.09828C7.49313 8.59661 7.49313 9.40639 6.9948 9.90472L0.225806 16.6737C-0.0752687 16.9748 -0.0752687 17.4731 0.225806 17.7742C0.526881 18.0753 1.02521 18.0753 1.32629 17.7742L8.09528 11.0052C8.62475 10.4757 8.92583 9.75938 8.92583 9.0015C8.92583 8.24362 8.63513 7.52727 8.09528 6.9978L1.32629 0.228807C1.17056 0.0834609 0.973301 0.000405938 0.776046 0.000405938Z" fill="white"/>
</svg>
