<svg width="18" height="18" viewBox="0 0 18 18" fill="none" xmlns="http://www.w3.org/2000/svg">
<path d="M8.99984 17.9997C4.03528 17.9997 0 13.9644 0 8.99984C0 4.03528 4.03528 0 8.99984 0C13.9644 0 17.9997 4.03528 17.9997 8.99984C17.9997 13.9644 13.9644 17.9997 8.99984 17.9997ZM8.99984 1.25579C4.73015 1.25579 1.25579 4.73015 1.25579 8.99984C1.25579 13.2695 4.73015 16.7439 8.99984 16.7439C13.2695 16.7439 16.7439 13.2695 16.7439 8.99984C16.7439 4.73015 13.2695 1.25579 8.99984 1.25579Z" fill="white"/>
<path d="M6.63054 11.9965C6.47148 11.9965 6.31241 11.9379 6.18683 11.8123C5.94405 11.5695 5.94405 11.1676 6.18683 10.9249L10.9254 6.18634C11.1681 5.94355 11.57 5.94355 11.8128 6.18634C12.0556 6.42913 12.0556 6.83098 11.8128 7.07377L7.07426 11.8123C6.95705 11.9379 6.78961 11.9965 6.63054 11.9965Z" fill="white"/>
<path d="M11.3691 11.9965C11.21 11.9965 11.0509 11.9379 10.9254 11.8123L6.18683 7.07377C5.94405 6.83098 5.94405 6.42913 6.18683 6.18634C6.42962 5.94355 6.83147 5.94355 7.07426 6.18634L11.8128 10.9249C12.0556 11.1676 12.0556 11.5695 11.8128 11.8123C11.6872 11.9379 11.5281 11.9965 11.3691 11.9965Z" fill="white"/>
</svg>
