<svg width="18" height="18" viewBox="0 0 18 18" fill="none" xmlns="http://www.w3.org/2000/svg">
<path d="M5.65106 17.2713C5.41665 17.2713 5.17385 17.2127 4.95617 17.0955C4.47897 16.8443 4.18597 16.342 4.18597 15.8062V14.6174C1.65764 14.3579 0 12.4993 0 9.83698V4.81387C0 1.93392 1.93392 0 4.81387 0H13.1858C16.0658 0 17.9997 1.93392 17.9997 4.81387V9.83698C17.9997 12.7169 16.0658 14.6508 13.1858 14.6508H10.0296L6.46311 17.0285C6.22033 17.1876 5.93571 17.2713 5.65106 17.2713ZM4.81387 1.24741C2.65391 1.24741 1.25579 2.64553 1.25579 4.80549V9.8287C1.25579 11.9887 2.65391 13.3868 4.81387 13.3868C5.15712 13.3868 5.44176 13.6714 5.44176 14.0147V15.7979C5.44176 15.9067 5.50874 15.9569 5.5506 15.9821C5.59246 16.0072 5.67619 16.0323 5.76828 15.9737L9.4938 13.4956C9.59427 13.4286 9.71983 13.3868 9.84541 13.3868H13.1942C15.3541 13.3868 16.7523 11.9887 16.7523 9.8287V4.80549C16.7523 2.64553 15.3541 1.24741 13.1942 1.24741H4.81387Z" fill="#7E7171"/>
</svg>
