<svg width="18" height="18" viewBox="0 0 18 18" fill="none" xmlns="http://www.w3.org/2000/svg">
<path d="M14.1828 13.8145H5.26623C4.43737 13.8145 3.64199 13.4628 3.08104 12.8516C2.52009 12.2404 2.23543 11.4199 2.30241 10.5911L2.99732 2.25218C3.02244 1.99263 2.93033 1.74146 2.75451 1.5489C2.57869 1.35633 2.3359 1.25586 2.07635 1.25586H0.62793C0.284662 1.25586 0 0.971198 0 0.62793C0 0.284662 0.284662 0 0.62793 0H2.08473C2.69592 0 3.2736 0.259541 3.68385 0.703278C3.9099 0.95445 4.07735 1.24749 4.16945 1.57401H14.6266C15.4722 1.57401 16.2508 1.90891 16.8201 2.51172C17.3811 3.1229 17.6658 3.91828 17.5988 4.7639L17.1467 11.0432C17.0546 12.5753 15.715 13.8145 14.1828 13.8145ZM4.21131 2.82149L3.55827 10.6915C3.51641 11.1771 3.67548 11.6376 4.002 11.9976C4.32853 12.3576 4.78063 12.5502 5.26623 12.5502H14.1828C15.0536 12.5502 15.8406 11.8135 15.9076 10.9427L16.3597 4.66343C16.3931 4.16946 16.2341 3.70061 15.9076 3.35734C15.581 3.0057 15.1289 2.81311 14.6349 2.81311H4.21131V2.82149Z" fill="#7E7171"/>
<path d="M12.5588 18.0003C11.6378 18.0003 10.8843 17.2468 10.8843 16.3258C10.8843 15.4049 11.6378 14.6514 12.5588 14.6514C13.4797 14.6514 14.2332 15.4049 14.2332 16.3258C14.2332 17.2468 13.4797 18.0003 12.5588 18.0003ZM12.5588 15.9072C12.3243 15.9072 12.1401 16.0914 12.1401 16.3258C12.1401 16.5603 12.3243 16.7445 12.5588 16.7445C12.7932 16.7445 12.9774 16.5603 12.9774 16.3258C12.9774 16.0914 12.7932 15.9072 12.5588 15.9072Z" fill="#7E7171"/>
<path d="M5.86101 18.0003C4.94004 18.0003 4.18653 17.2468 4.18653 16.3258C4.18653 15.4049 4.94004 14.6514 5.86101 14.6514C6.78197 14.6514 7.53548 15.4049 7.53548 16.3258C7.53548 17.2468 6.78197 18.0003 5.86101 18.0003ZM5.86101 15.9072C5.62658 15.9072 5.44239 16.0914 5.44239 16.3258C5.44239 16.5603 5.62658 16.7445 5.86101 16.7445C6.09543 16.7445 6.27963 16.5603 6.27963 16.3258C6.27963 16.0914 6.09543 15.9072 5.86101 15.9072Z" fill="#7E7171"/>
<path d="M16.5356 6.2793H6.48877C6.1455 6.2793 5.86084 5.99464 5.86084 5.65137C5.86084 5.3081 6.1455 5.02344 6.48877 5.02344H16.5356C16.8789 5.02344 17.1636 5.3081 17.1636 5.65137C17.1636 5.99464 16.8789 6.2793 16.5356 6.2793Z" fill="#7E7171"/>
</svg>
