<svg width="18" height="14" viewBox="0 0 18 14" fill="none" xmlns="http://www.w3.org/2000/svg">
<path d="M14.3733 14H5.33696C4.49696 14 3.6909 13.6436 3.12242 13.0242C2.55393 12.4049 2.26545 11.5733 2.33333 10.7333L3.03758 2.28243C3.06303 2.0194 2.96969 1.76485 2.79151 1.5697C2.61333 1.37455 2.36727 1.27273 2.10424 1.27273H0.636364C0.288485 1.27273 0 0.984242 0 0.636364C0 0.288485 0.288485 0 0.636364 0H2.11273C2.73213 0 3.31757 0.263027 3.73333 0.712724C3.96242 0.96727 4.13212 1.26425 4.22545 1.59516H14.823C15.68 1.59516 16.4691 1.93455 17.0461 2.54545C17.6145 3.16485 17.903 3.97091 17.8352 4.82788L17.377 11.1915C17.2836 12.7442 15.9261 14 14.3733 14ZM4.26788 2.85939L3.60606 10.8351C3.56364 11.3273 3.72485 11.7939 4.05576 12.1588C4.38667 12.5236 4.84484 12.7188 5.33696 12.7188H14.3733C15.2558 12.7188 16.0533 11.9721 16.1212 11.0897L16.5794 4.72607C16.6133 4.22546 16.4521 3.75031 16.1212 3.40243C15.7903 3.04607 15.3321 2.8509 14.8315 2.8509H4.26788V2.85939Z" fill="#774000"/>
</svg>
