<svg width="18" height="18" viewBox="0 0 18 18" fill="none" xmlns="http://www.w3.org/2000/svg">
<path d="M14.1821 13.8137H5.26595C4.43712 13.8137 3.64179 13.4621 3.08087 12.8509C2.51995 12.2398 2.23531 11.4193 2.30228 10.5905L2.99716 2.25205C3.02227 1.99252 2.93017 1.74137 2.75436 1.54881C2.57855 1.35626 2.33577 1.25579 2.07624 1.25579H0.627896C0.284646 1.25579 0 0.971145 0 0.627896C0 0.284646 0.284646 0 0.627896 0H2.08462C2.69577 0 3.27342 0.259527 3.68365 0.70324C3.90969 0.954398 4.07713 1.24742 4.16922 1.57393H14.6258C15.4713 1.57393 16.2499 1.9088 16.8192 2.51158C17.3801 3.12273 17.6648 3.91807 17.5978 4.76364L17.1457 11.0426C17.0536 12.5747 15.7141 13.8137 14.1821 13.8137ZM4.21109 2.82134L3.55807 10.691C3.51622 11.1765 3.67528 11.637 4.00179 11.997C4.32829 12.357 4.78037 12.5495 5.26595 12.5495H14.1821C15.0528 12.5495 15.8397 11.8128 15.9067 10.9421L16.3588 4.66318C16.3923 4.16923 16.2332 3.70041 15.9067 3.35716C15.5802 3.00553 15.1281 2.81296 14.6341 2.81296H4.21109V2.82134Z" fill="#774000"/>
<path d="M12.5581 17.9998C11.6372 17.9998 10.8837 17.2464 10.8837 16.3254C10.8837 15.4045 11.6372 14.6511 12.5581 14.6511C13.479 14.6511 14.2325 15.4045 14.2325 16.3254C14.2325 17.2464 13.479 17.9998 12.5581 17.9998ZM12.5581 15.9069C12.3237 15.9069 12.1395 16.091 12.1395 16.3254C12.1395 16.5599 12.3237 16.744 12.5581 16.744C12.7925 16.744 12.9767 16.5599 12.9767 16.3254C12.9767 16.091 12.7925 15.9069 12.5581 15.9069Z" fill="#774000"/>
<path d="M5.86069 17.9998C4.93977 17.9998 4.1863 17.2464 4.1863 16.3254C4.1863 15.4045 4.93977 14.6511 5.86069 14.6511C6.7816 14.6511 7.53507 15.4045 7.53507 16.3254C7.53507 17.2464 6.7816 17.9998 5.86069 17.9998ZM5.86069 15.9069C5.62627 15.9069 5.44209 16.091 5.44209 16.3254C5.44209 16.5599 5.62627 16.744 5.86069 16.744C6.0951 16.744 6.27928 16.5599 6.27928 16.3254C6.27928 16.091 6.0951 15.9069 5.86069 15.9069Z" fill="#774000"/>
<path d="M16.5347 6.27896H6.48842C6.14517 6.27896 5.86052 5.99431 5.86052 5.65106C5.86052 5.30781 6.14517 5.02316 6.48842 5.02316H16.5347C16.878 5.02316 17.1626 5.30781 17.1626 5.65106C17.1626 5.99431 16.878 6.27896 16.5347 6.27896Z" fill="#774000"/>
</svg>
