<svg width="28" height="28" viewBox="0 0 28 28" fill="none" xmlns="http://www.w3.org/2000/svg">
<g clip-path="url(#clip0_253_25057)">
<path d="M15.2576 14.2632H14.1989C13.8895 14.2632 13.5927 14.1403 13.3739 13.9215C13.1551 13.7027 13.0322 13.406 13.0322 13.0966V12.9215C13.0322 12.6121 13.1551 12.3154 13.3739 12.0966C13.5927 11.8778 13.8895 11.7549 14.1989 11.7549H14.3739C14.6833 11.7549 14.9801 11.8778 15.1989 12.0966C15.4176 12.3154 15.5406 12.6121 15.5406 12.9215V13.9716C15.5406 14.0474 15.5111 14.1203 15.4582 14.1748C15.4054 14.2292 15.3335 14.2609 15.2576 14.2632ZM14.1989 12.3236C14.0442 12.3236 13.8958 12.3851 13.7864 12.4945C13.677 12.6039 13.6156 12.7523 13.6156 12.907V13.082C13.6156 13.2367 13.677 13.385 13.7864 13.4944C13.8958 13.6038 14.0442 13.6653 14.1989 13.6653H14.966V12.9157C14.966 12.761 14.9045 12.6126 14.7951 12.5032C14.6857 12.3938 14.5374 12.3324 14.3826 12.3324L14.1989 12.3236Z" fill="#E8EFFF"/>
<path d="M16.3133 14.2632H15.2575C15.1801 14.2632 15.1059 14.2325 15.0512 14.1778C14.9965 14.1231 14.9658 14.0489 14.9658 13.9715V12.9157C14.9658 12.6063 15.0887 12.3095 15.3075 12.0907C15.5263 11.8719 15.8231 11.749 16.1325 11.749H16.3075C16.6169 11.749 16.9137 11.8719 17.1324 12.0907C17.3512 12.3095 17.4742 12.6063 17.4742 12.9157V13.0907C17.4749 13.2439 17.4455 13.3958 17.3876 13.5376C17.3297 13.6794 17.2444 13.8085 17.1366 13.9174C17.0288 14.0262 16.9006 14.1128 16.7593 14.1722C16.6181 14.2315 16.4665 14.2624 16.3133 14.2632ZM15.5492 13.6799H16.3133C16.468 13.6799 16.6164 13.6184 16.7258 13.509C16.8352 13.3996 16.8967 13.2512 16.8967 13.0965V12.9215C16.8967 12.7668 16.8352 12.6184 16.7258 12.509C16.6164 12.3996 16.468 12.3382 16.3133 12.3382H16.1383C15.9836 12.3382 15.8352 12.3996 15.7258 12.509C15.6164 12.6184 15.555 12.7668 15.555 12.9215L15.5492 13.6799Z" fill="#E8EFFF"/>
<path d="M19.8099 14.2627H10.7012C10.3387 14.2627 10.0449 14.5565 10.0449 14.9189V21.8052C10.0449 22.1676 10.3387 22.4614 10.7012 22.4614H19.8099C20.1724 22.4614 20.4662 22.1676 20.4662 21.8052V14.9189C20.4662 14.5565 20.1724 14.2627 19.8099 14.2627Z" fill="#4DC8FF"/>
<path d="M20.4662 14.9189V15.896C20.4662 16.0121 20.4201 16.1233 20.338 16.2054C20.256 16.2874 20.1447 16.3335 20.0287 16.3335C19.9126 16.3335 19.8014 16.2874 19.7193 16.2054C19.6373 16.1233 19.5912 16.0121 19.5912 15.896V15.1377H10.9199V15.896C10.9199 16.0121 10.8738 16.1233 10.7918 16.2054C10.7097 16.2874 10.5985 16.3335 10.4824 16.3335C10.3664 16.3335 10.2551 16.2874 10.1731 16.2054C10.091 16.1233 10.0449 16.0121 10.0449 15.896V14.9189C10.0449 14.7449 10.1141 14.578 10.2371 14.4549C10.3602 14.3318 10.5271 14.2627 10.7012 14.2627H19.8099C19.984 14.2627 20.1509 14.3318 20.274 14.4549C20.397 14.578 20.4662 14.7449 20.4662 14.9189Z" fill="#61E6FF"/>
<path d="M20.4662 17.807V21.237L19.1099 22.4591H10.7012C10.5271 22.4591 10.3602 22.3899 10.2371 22.2668C10.1141 22.1438 10.0449 21.9768 10.0449 21.8028V17.2236L15.2045 19.2099C15.3576 19.2689 15.4975 19.3576 15.6162 19.4709C15.7349 19.5841 15.83 19.7197 15.8962 19.8699C15.9623 20.02 15.9981 20.1818 16.0015 20.3458C16.005 20.5098 15.976 20.6729 15.9162 20.8257C15.9162 20.8549 15.6303 21.0182 20.4662 17.807Z" fill="#4DAAFF"/>
<path d="M16.6632 18.7806L15.2545 17.9289L13.8486 18.7806V14.2627H16.6632V18.7806Z" fill="#4D7DD2"/>
<path d="M13.8486 14.2627H16.6632V15.1377H13.8486V14.2627Z" fill="#4DC8FF"/>
<path d="M22.8583 20.2623C22.8597 20.4353 22.8249 20.6067 22.7561 20.7654C22.6872 20.9241 22.5859 21.0667 22.4587 21.1839L16.6516 26.4339C15.973 27.0444 15.1406 27.458 14.2442 27.6302C13.3478 27.8024 12.4215 27.7266 11.565 27.411L7.07038 25.7485C6.66204 25.5998 6.51329 25.6231 5.55371 25.6377V19.4806L6.56288 18.9177C6.99618 18.6758 7.47747 18.5323 7.97251 18.4976C8.46755 18.4628 8.96417 18.5375 9.42704 18.7164C15.7212 21.1402 15.3625 20.9652 15.6045 21.1869C15.7907 21.3565 15.9209 21.5787 15.9782 21.8239C16.0355 22.0692 16.0171 22.326 15.9254 22.5606C15.9254 22.5898 15.6337 22.7589 20.945 19.2298C21.1315 19.109 21.3472 19.0405 21.5693 19.0317C21.7914 19.0228 22.0118 19.0738 22.2074 19.1794C22.403 19.2849 22.5667 19.4412 22.6812 19.6317C22.7957 19.8222 22.8569 20.04 22.8583 20.2623Z" fill="#FFC7AE"/>
<path d="M22.4587 21.1835L16.6516 26.4335C15.973 27.044 15.1406 27.4576 14.2442 27.6298C13.3478 27.802 12.4215 27.7262 11.565 27.4106L7.07038 25.7481C6.66204 25.5994 6.51329 25.6227 5.55371 25.6373V24.386C6.35871 24.386 6.62121 24.3335 7.07038 24.4969L11.565 26.1594C12.4215 26.475 13.3478 26.5508 14.2442 26.3786C15.1406 26.2064 15.973 25.7928 16.6516 25.1823C23.0158 19.4423 22.5608 19.8885 22.7008 19.6406C22.8435 19.8866 22.8974 20.1741 22.8533 20.455C22.8092 20.7359 22.6699 20.9931 22.4587 21.1835Z" fill="#FFA990"/>
<path d="M16.6687 22.0651C16.6565 22.4649 16.4887 22.8441 16.2011 23.1219C15.9134 23.3998 15.5286 23.5543 15.1287 23.5526C14.8137 23.5526 15.152 23.6285 9.64243 21.9339C9.60367 21.9247 9.5672 21.9077 9.53527 21.8839C9.50334 21.8601 9.47662 21.83 9.45677 21.7954C9.43692 21.7609 9.42435 21.7227 9.41984 21.6831C9.41533 21.6435 9.41898 21.6034 9.43055 21.5653C9.44213 21.5272 9.46138 21.4919 9.48714 21.4615C9.51289 21.4311 9.5446 21.4063 9.5803 21.3886C9.616 21.371 9.65494 21.3608 9.69472 21.3588C9.7345 21.3567 9.77427 21.3629 9.81159 21.3768L14.8545 22.9285C15.0466 22.9865 15.2521 22.9828 15.442 22.9179C15.632 22.853 15.7968 22.7302 15.9133 22.5668L16.6687 22.0651Z" fill="#FFA990"/>
<path d="M5.54163 19.5423V26.6006C5.54163 26.6989 5.5026 26.7931 5.43313 26.8625C5.36367 26.932 5.26945 26.971 5.17121 26.971H3.92871V19.1689H5.17413C5.22277 19.1693 5.27086 19.1793 5.31566 19.1983C5.36045 19.2172 5.40108 19.2448 5.4352 19.2795C5.46933 19.3142 5.49629 19.3552 5.51455 19.4003C5.53281 19.4454 5.54201 19.4936 5.54163 19.5423Z" fill="#C5CCFF"/>
<path d="M5.54163 24.7219V26.5974C5.54163 26.6956 5.5026 26.7898 5.43313 26.8593C5.36367 26.9287 5.26945 26.9678 5.17121 26.9678H3.92871V24.3428H5.17413C5.22316 24.3435 5.27156 24.3539 5.31656 24.3734C5.36156 24.3929 5.40229 24.421 5.43642 24.4562C5.47055 24.4914 5.4974 24.533 5.51545 24.5786C5.53351 24.6242 5.5424 24.6729 5.54163 24.7219Z" fill="#A2A9D2"/>
<path d="M0.294922 19.1689H3.93201V26.971H0.294922V19.1689Z" fill="#E8EFFF"/>
<path d="M1.38281 19.1689H2.84115V23.3602H1.38281V19.1689Z" fill="white"/>
<path d="M0.294922 24.3486H3.93201V26.9678H0.294922V24.3486Z" fill="#CAD1FF"/>
<path d="M19.2739 8.74978L6.62432 11.5381C6.58368 11.5475 6.54158 11.5487 6.50048 11.5415C6.45939 11.5344 6.42015 11.5191 6.38507 11.4965C6.35 11.474 6.3198 11.4446 6.29627 11.4102C6.27274 11.3757 6.25635 11.3369 6.24807 11.296C5.49265 7.83687 5.73182 8.9452 4.78973 4.70437C4.78071 4.66357 4.77981 4.6214 4.7871 4.58026C4.79438 4.53912 4.8097 4.49982 4.83218 4.46461C4.85467 4.42939 4.88387 4.39896 4.91813 4.37504C4.95238 4.35111 4.99101 4.33418 5.03182 4.3252L17.6902 1.55145C17.7309 1.54243 17.7731 1.54153 17.8143 1.54881C17.8554 1.5561 17.8947 1.57142 17.9299 1.5939C17.9651 1.61639 17.9956 1.64559 18.0195 1.67984C18.0434 1.7141 18.0603 1.75273 18.0693 1.79354C19.026 6.13645 19.3235 7.49853 19.5276 8.3852C19.5413 8.46707 19.5224 8.55104 19.475 8.61916C19.4276 8.68728 19.3554 8.73417 19.2739 8.74978Z" fill="#008C72"/>
<path d="M5.80723 5.20985C5.80295 5.19031 5.80257 5.17012 5.80612 5.15043C5.80968 5.13075 5.81709 5.11196 5.82793 5.09515C5.83878 5.07835 5.85284 5.06385 5.86931 5.0525C5.88578 5.04115 5.90433 5.03317 5.92389 5.02901L17.1881 2.5586C17.2271 2.55081 17.2676 2.55868 17.3009 2.5805C17.3342 2.60233 17.3576 2.63636 17.366 2.67526L18.5093 7.87568C18.518 7.91473 18.511 7.95565 18.4897 7.98952C18.4684 8.02339 18.4345 8.04747 18.3956 8.05651L7.13139 10.5328C7.11186 10.537 7.09166 10.5374 7.07198 10.5339C7.0523 10.5303 7.03351 10.5229 7.0167 10.5121C6.99989 10.5012 6.9854 10.4872 6.97405 10.4707C6.96269 10.4542 6.95471 10.4357 6.95056 10.4161C6.53056 8.49985 5.79848 5.16901 5.80723 5.20985Z" fill="#00A072"/>
<path d="M19.2737 8.75L13.6475 9.99542V5.25L19.2241 7.0525C19.5158 8.32708 19.4458 8.0675 19.5158 8.38833C19.529 8.4681 19.5113 8.5499 19.4663 8.61708C19.4214 8.68427 19.3525 8.7318 19.2737 8.75Z" fill="#007372"/>
<path d="M19.2735 8.75029L17.4797 9.14404C17.4025 8.86919 17.3851 8.58096 17.4288 8.29882C17.4724 8.01667 17.5762 7.74719 17.7329 7.50858C17.8897 7.26997 18.0959 7.06778 18.3375 6.91569C18.5791 6.76359 18.8506 6.66513 19.1335 6.62695C19.5039 8.31862 19.4456 8.04154 19.5156 8.37695C19.5321 8.45848 19.516 8.54323 19.4707 8.61303C19.4255 8.68282 19.3547 8.7321 19.2735 8.75029Z" fill="#005A72"/>
<path d="M8.33961 11.1629L6.62461 11.5391C6.58398 11.5485 6.54187 11.5497 6.50078 11.5426C6.45968 11.5354 6.42044 11.5201 6.38537 11.4975C6.35029 11.475 6.32009 11.4456 6.29656 11.4112C6.27303 11.3767 6.25664 11.3379 6.24836 11.297L5.88086 9.62579C6.13994 9.5578 6.41007 9.54276 6.6751 9.58156C6.94013 9.62036 7.19461 9.71221 7.42332 9.85162C7.65204 9.99103 7.85029 10.1751 8.00622 10.3929C8.16216 10.6107 8.27257 10.8577 8.33086 11.1191C8.33476 11.1335 8.33768 11.1481 8.33961 11.1629Z" fill="#006E72"/>
<path d="M5.2302 6.49651C5.18062 6.49651 5.2302 6.69484 4.80145 4.70568C4.79243 4.66488 4.79153 4.62271 4.79881 4.58157C4.8061 4.54043 4.82142 4.50113 4.8439 4.46592C4.86639 4.4307 4.89559 4.40026 4.92984 4.37634C4.9641 4.35242 5.00273 4.33549 5.04354 4.32651L6.70895 3.96484C6.79086 4.22821 6.81702 4.50576 6.78577 4.77979C6.75452 5.05383 6.66653 5.31835 6.52742 5.55651C6.38831 5.79468 6.20112 6.00126 5.97778 6.16309C5.75444 6.32493 5.49984 6.43848 5.2302 6.49651Z" fill="#006E72"/>
<path d="M18.4454 3.50074C18.1727 3.59346 17.8831 3.62594 17.5966 3.59593C17.3101 3.56593 17.0336 3.47415 16.786 3.32693C16.5384 3.17971 16.3257 2.98055 16.1625 2.74318C15.9993 2.50581 15.8896 2.23587 15.8408 1.95199L17.69 1.54657C17.7308 1.53754 17.773 1.53665 17.8141 1.54393C17.8552 1.55122 17.8945 1.56654 17.9297 1.58902C17.965 1.6115 17.9954 1.64071 18.0193 1.67496C18.0432 1.70922 18.0602 1.74785 18.0692 1.78865L18.4454 3.50074Z" fill="#006E72"/>
<path d="M22.6047 7.43234L21.7297 7.91359C21.358 8.11914 20.9459 8.24104 20.5223 8.27076C20.0986 8.30049 19.6735 8.23732 19.2768 8.08568L14.3184 6.17818C14.0561 6.08264 13.8418 5.88787 13.7217 5.63583C13.6016 5.38379 13.5853 5.09466 13.6764 4.83073C13.7674 4.5668 13.9585 4.34919 14.2084 4.2248C14.4584 4.1004 14.7472 4.07917 15.0126 4.16568L19.3322 5.49568L22.6047 7.43234Z" fill="white"/>
<path d="M18.8506 5.34375L19.3464 5.49542" stroke="#302D3D" stroke-width="2" stroke-linecap="round" stroke-linejoin="round"/>
<path d="M22.6045 1.14355H27.7057V8.85814H22.6045V1.14355Z" fill="#E8EFFF"/>
<path d="M13.7265 4.78943C13.6747 4.92037 13.6493 5.06027 13.6517 5.20108C13.6542 5.3419 13.6845 5.48083 13.7409 5.60988C13.7973 5.73893 13.8786 5.85554 13.9803 5.95301C14.082 6.05047 14.2019 6.12685 14.3332 6.17776C14.4032 6.20401 19.3907 8.12609 19.4665 8.14359C19.8419 8.26218 20.2376 8.30291 20.6293 8.26329C21.0209 8.22367 21.4004 8.10453 21.7445 7.91318L22.6195 7.43193V2.18193L21.7445 2.19651C21.5782 2.19651 21.9224 2.30734 17.1186 0.534008C16.4914 0.297729 15.8114 0.238053 15.1526 0.361479C14.4938 0.484904 13.8815 0.7867 13.3824 1.23401L11.5332 2.91693L17.6932 1.55193C17.734 1.5429 17.7762 1.542 17.8173 1.54929C17.8584 1.55657 17.8977 1.57189 17.933 1.59438C17.9682 1.61686 17.9986 1.64606 18.0225 1.68032C18.0465 1.71457 18.0634 1.7532 18.0724 1.79401L18.8511 5.34359C14.7474 4.07193 14.9311 4.11859 14.7182 4.11859C14.5049 4.11887 14.2965 4.18287 14.1198 4.3024C13.9431 4.42193 13.8062 4.59152 13.7265 4.78943Z" fill="#FFC7AE"/>
<path d="M22.6017 6.48427V7.43219L21.7413 7.91344C21.3693 8.11942 20.9567 8.24156 20.5324 8.27129C20.1082 8.30101 19.6826 8.23761 19.2855 8.08552L14.3272 6.17802C14.1958 6.12712 14.0759 6.05073 13.9742 5.95327C13.8726 5.8558 13.7912 5.73919 13.7348 5.61014C13.6784 5.48109 13.6481 5.34216 13.6457 5.20135C13.6432 5.06053 13.6686 4.92063 13.7205 4.78969C13.7314 4.76262 13.744 4.73631 13.7584 4.71094C13.8796 4.952 14.0882 5.1377 14.3417 5.2301C14.403 5.25344 19.4022 7.17844 19.4751 7.19594C19.8505 7.31452 20.2461 7.35525 20.6378 7.31563C21.0295 7.27601 21.4089 7.15688 21.753 6.96552L22.6017 6.48427Z" fill="#FFA990"/>
<path d="M10.8885 6.67375C10.911 6.89254 10.9896 7.10181 11.1167 7.28131C11.2438 7.46081 11.4151 7.60447 11.614 7.69836C11.8128 7.79225 12.0326 7.83321 12.252 7.81726C12.4713 7.80132 12.6828 7.72901 12.8661 7.60734C13.0493 7.48566 13.198 7.31875 13.2978 7.12275C13.3976 6.92676 13.4451 6.70832 13.4357 6.48858C13.4263 6.26885 13.3603 6.05526 13.2442 5.86849C13.128 5.68172 12.9656 5.5281 12.7727 5.4225C12.5684 5.31069 12.3375 5.25685 12.1048 5.26679C11.8721 5.27673 11.6466 5.35008 11.4526 5.47892C11.2586 5.60775 11.1035 5.78716 11.0041 5.99775C10.9047 6.20834 10.8647 6.4421 10.8885 6.67375Z" fill="#006E72"/>
<path d="M24.4248 1.05566H25.8831V5.24691H24.4248V1.05566Z" fill="white"/>
<path d="M22.6045 6.23926H27.7087V8.85842H22.6045V6.23926Z" fill="#CAD1FF"/>
</g>
<defs>
<clipPath id="clip0_253_25057">
<rect width="28" height="28" fill="white"/>
</clipPath>
</defs>
</svg>
