<svg width="24" height="24" viewBox="0 0 24 24" fill="none" xmlns="http://www.w3.org/2000/svg">
<g clip-path="url(#clip0_253_23121)">
<path d="M11.9998 23.9995C18.6268 23.9995 23.9995 18.6264 23.9995 11.9998C23.9995 5.37318 18.6273 0 11.9998 0C5.37224 0 0 5.37364 0 11.9998C0 18.6259 5.37271 23.9995 11.9998 23.9995Z" fill="#F0F0F0"/>
<path fill-rule="evenodd" clip-rule="evenodd" d="M22.2259 5.73412H11.4599V2.60059H19.4594C20.5579 3.47512 21.4943 4.53574 22.2259 5.73412ZM23.9992 11.9998H11.4665V8.86718H23.5862C23.8612 9.88864 24.0001 10.942 23.9992 11.9998ZM11.9994 23.9995C14.7123 24.0058 17.3462 23.0864 19.466 21.3933H4.53332C6.65275 23.0867 9.2866 24.0061 11.9994 23.9995ZM22.2391 18.2668H1.75978C1.16246 17.2927 0.708889 16.2375 0.413086 15.1338H23.5858C23.29 16.2375 22.8365 17.2928 22.2391 18.2668Z" fill="#D80027"/>
<path fill-rule="evenodd" clip-rule="evenodd" d="M5.57099 1.86747H5.5602V1.87497L5.57099 1.86747ZM5.57099 1.86747H6.65612L5.6338 2.60105L6.02051 3.80103L5.00053 3.06745L3.98711 3.80103L4.32038 2.76558C3.42466 3.51526 2.64316 4.39167 2.00059 5.36709H2.35402L1.70715 5.83583L1.41372 6.35145L1.72028 7.30487L1.14045 6.883L0.740611 7.81392L1.07389 8.85921H2.33949L1.33357 9.60029L1.72028 10.8003L0.700299 10.0667L0.100311 10.5064C0.0333572 11.0014 -0.000155581 11.5003 5.42967e-07 11.9998H11.9998V1.01072e-05C9.72265 -0.00295146 7.49213 0.644982 5.57099 1.86747ZM6.01816 10.7942L6.02707 10.8012H6.02051L6.01816 10.7942ZM5.63333 9.60076L6.01816 10.7942L5.00006 10.0676L3.98008 10.8012L4.36679 9.60123L3.34681 8.86765H4.61241L4.99912 7.66767L5.38583 8.86765H6.65143L5.63333 9.60076ZM5.64036 6.1077L6.02707 7.30768L5.00709 6.5741L3.98711 7.30768L4.37382 6.1077L3.35384 5.37412H4.61944L5.00615 4.17415L5.39286 5.37412H6.65846L5.64036 6.1077ZM9.31341 10.0676L10.3334 10.8012L9.94668 9.60123L10.9685 8.86765H9.70294L9.31623 7.66767L8.92951 8.86765H7.66391L8.68389 9.60123L8.29718 10.8012L9.31341 10.0676ZM9.94668 6.1077L10.3334 7.30768L9.31341 6.5741L8.29343 7.30768L8.68014 6.1077L7.66016 5.37412H8.92576L9.31248 4.17415L9.69919 5.37412H10.9648L9.94668 6.1077ZM10.3334 3.81415L9.94668 2.61418L10.9685 1.8806H9.70294L9.31623 0.680622L8.92951 1.8806H7.66391L8.68389 2.61418L8.29718 3.81415L9.31716 3.08057L10.3334 3.81415Z" fill="#0052B4"/>
</g>
<defs>
<clipPath id="clip0_253_23121">
<rect width="24" height="24" fill="white"/>
</clipPath>
</defs>
</svg>
