<svg width="20" height="20" viewBox="0 0 20 20" fill="none" xmlns="http://www.w3.org/2000/svg">
<path fill-rule="evenodd" clip-rule="evenodd" d="M10.9742 18.5413C13.0899 17.0976 17.9168 13.3048 17.9168 8.74992C17.9168 4.37766 14.3724 0.833252 10.0002 0.833252C5.62791 0.833252 2.0835 4.37766 2.0835 8.74992C2.0835 13.3048 6.91041 17.0976 9.02612 18.5413C9.61775 18.945 10.3826 18.945 10.9742 18.5413ZM10.0002 11.2499C11.3809 11.2499 12.5002 10.1306 12.5002 8.74992C12.5002 7.36921 11.3809 6.24992 10.0002 6.24992C8.61945 6.24992 7.50016 7.36921 7.50016 8.74992C7.50016 10.1306 8.61945 11.2499 10.0002 11.2499Z" fill="#7E7171"/>
</svg>
