<svg width="6" height="12" viewBox="0 0 6 12" fill="none" xmlns="http://www.w3.org/2000/svg">
<path d="M0.517364 11.9997C0.38586 11.9997 0.254356 11.9513 0.150537 11.8475C-0.0501791 11.6467 -0.0501791 11.3145 0.150537 11.1138L4.6632 6.60115C4.99542 6.26893 4.99542 5.72907 4.6632 5.39685L0.150537 0.884191C-0.0501791 0.683474 -0.0501791 0.351254 0.150537 0.150537C0.351254 -0.0501791 0.683474 -0.0501791 0.88419 0.150537L5.39685 4.6632C5.74983 5.01618 5.95055 5.49375 5.95055 5.999C5.95055 6.50425 5.75676 6.98182 5.39685 7.3348L0.88419 11.8475C0.780371 11.9444 0.648868 11.9997 0.517364 11.9997Z" fill="#0B0A0A"/>
</svg>
