<svg width="14" height="14" viewBox="0 0 14 14" fill="none" xmlns="http://www.w3.org/2000/svg">
<path d="M5.8004 0.871435C6.17799 -0.290642 7.82201 -0.290642 8.1996 0.871435L8.98729 3.29572C9.15615 3.81542 9.64045 4.16728 10.1869 4.16728H12.7359C13.9578 4.16728 14.4658 5.73084 13.4773 6.44904L11.4151 7.94733C10.973 8.26853 10.788 8.83785 10.9569 9.35754L11.7446 11.7818C12.1222 12.9439 10.7921 13.9102 9.80361 13.192L7.74139 11.6937C7.29931 11.3726 6.70069 11.3726 6.25861 11.6937L4.19639 13.192C3.20787 13.9102 1.87782 12.9439 2.2554 11.7818L3.0431 9.35754C3.21196 8.83785 3.02697 8.26852 2.58489 7.94733L0.522675 6.44904C-0.465846 5.73084 0.0421865 4.16728 1.26407 4.16728H3.81311C4.35955 4.16728 4.84385 3.81542 5.01271 3.29572L5.8004 0.871435Z" fill="#FFBB3A"/>
</svg>
