<svg width="18" height="17" viewBox="0 0 18 17" fill="none" xmlns="http://www.w3.org/2000/svg">
<path d="M9.00008 16.1583C8.74055 16.1583 8.48938 16.1248 8.28008 16.0494C5.08191 14.9527 0 11.0596 0 5.30795C0 2.3777 2.36932 0 5.28284 0C6.69774 0 8.02054 0.552563 9.00008 1.54048C9.97963 0.552563 11.3024 0 12.7173 0C15.6308 0 18.0002 2.38607 18.0002 5.30795C18.0002 11.068 12.9183 14.9527 9.72009 16.0494C9.51078 16.1248 9.25962 16.1583 9.00008 16.1583ZM5.28284 1.25583C3.06421 1.25583 1.25583 3.07259 1.25583 5.30795C1.25583 11.0261 6.75634 14.2076 8.69031 14.869C8.84101 14.9192 9.16753 14.9192 9.31822 14.869C11.2438 14.2076 16.7527 11.0345 16.7527 5.30795C16.7527 3.07259 14.9443 1.25583 12.7257 1.25583C11.4531 1.25583 10.2727 1.85025 9.51078 2.88003C9.27636 3.19817 8.74055 3.19817 8.50612 2.88003C7.72751 1.84188 6.55541 1.25583 5.28284 1.25583Z" fill="white"/>
</svg>
