<svg width="20" height="22" viewBox="0 0 20 22" fill="none" xmlns="http://www.w3.org/2000/svg">
<path d="M3.37434 18.5577C2.7487 18.5577 2.16409 18.3423 1.74358 17.9423C1.21024 17.4398 0.953832 16.6808 1.04614 15.8603L1.42563 12.5372C1.49742 11.9116 1.87691 11.0808 2.31794 10.6295L10.7384 1.7167C12.841 -0.508944 15.0359 -0.570482 17.2615 1.53208C19.4872 3.63465 19.5487 5.82952 17.4461 8.05516L9.02563 16.968C8.59486 17.4295 7.79486 17.8603 7.16922 17.9629L3.86665 18.527C3.69229 18.5372 3.53845 18.5577 3.37434 18.5577ZM14.0308 1.52183C13.241 1.52183 12.5538 2.01413 11.8564 2.75259L3.43588 11.6757C3.23076 11.8911 2.99486 12.4039 2.95383 12.7013L2.57435 16.0244C2.53332 16.3629 2.61537 16.6398 2.79999 16.8141C2.9846 16.9885 3.26152 17.05 3.59999 16.9987L6.90255 16.4346C7.19999 16.3834 7.69229 16.1167 7.89742 15.9013L16.3179 6.98849C17.5897 5.63465 18.0513 4.38336 16.1949 2.63977C15.3743 1.85003 14.6667 1.52183 14.0308 1.52183Z" fill="#774000"/>
<path d="M15.4774 9.76827C15.4569 9.76827 15.4261 9.76827 15.4056 9.76827C12.2056 9.45033 9.63122 7.01956 9.13891 3.84007C9.07737 3.41956 9.36455 3.02981 9.78506 2.95802C10.2056 2.89648 10.5953 3.18366 10.6671 3.60417C11.0569 6.08622 13.0671 7.99392 15.5697 8.24007C15.9902 8.2811 16.2979 8.66058 16.2569 9.0811C16.2056 9.47084 15.8671 9.76827 15.4774 9.76827Z" fill="#774000"/>
<path d="M19.2308 21.871H0.769231C0.348718 21.871 0 21.5223 0 21.1018C0 20.6813 0.348718 20.3325 0.769231 20.3325H19.2308C19.6513 20.3325 20 20.6813 20 21.1018C20 21.5223 19.6513 21.871 19.2308 21.871Z" fill="#774000"/>
</svg>
