<svg width="20" height="20" viewBox="0 0 20 20" fill="none" xmlns="http://www.w3.org/2000/svg">
<path d="M16.7532 5.16719C16.7871 4.89199 16.8048 4.6118 16.8048 4.32746C16.8048 1.9375 14.8673 0 12.4773 0H5.24522C4.7903 0 4.4019 0.328516 4.32643 0.777109L1.66159 16.616C1.56596 17.1843 2.00409 17.7023 2.58038 17.7023H5.22534C5.68026 17.7023 6.07596 17.374 6.15139 16.9254C6.15139 16.9254 6.1558 16.8991 6.16377 16.8517H6.16381L5.79522 19.0426C5.711 19.5435 6.09713 20 6.60506 20H8.91901C9.31998 20 9.66233 19.7104 9.72881 19.315L10.3862 15.408C10.4995 14.7345 11.0826 14.2413 11.7655 14.2413H12.3734C15.6754 14.2413 18.3521 11.5646 18.3521 8.26266C18.3521 6.98496 17.7205 5.85555 16.7532 5.16719Z" fill="#002987"/>
<path d="M16.7528 5.16699C16.3389 8.53336 13.4698 11.14 9.99158 11.14H7.97342C7.51791 11.14 7.12451 11.4434 7.00111 11.8724L5.79479 19.0423C5.71053 19.5432 6.09666 19.9998 6.60459 19.9998H8.91854C9.31951 19.9998 9.66186 19.7102 9.72834 19.3148L10.3857 15.4078C10.499 14.7343 11.0821 14.2411 11.7651 14.2411H12.3729C15.6749 14.2411 18.3516 11.5644 18.3516 8.26246C18.3516 6.98477 17.7201 5.85535 16.7528 5.16699Z" fill="#0085CC"/>
<path d="M7.97332 11.1401H9.99148C13.4697 11.1401 16.3389 8.53344 16.7527 5.16711C16.132 4.72547 15.3736 4.46484 14.5538 4.46484H9.28625C8.68652 4.46484 8.17445 4.89793 8.07492 5.48934L7.00098 11.8725C7.12438 11.4435 7.51781 11.1401 7.97332 11.1401Z" fill="#00186A"/>
</svg>
