<svg width="34" height="21" viewBox="0 0 34 21" fill="none" xmlns="http://www.w3.org/2000/svg">
<path d="M34.0004 10.1999C34.0004 15.8125 29.4671 20.3998 23.8005 20.3998C18.1878 20.3998 13.6006 15.8125 13.6006 10.1999C13.6006 4.58726 18.1339 0 23.7465 0C29.4671 0 34.0004 4.58726 34.0004 10.1999Z" fill="#FFB600"/>
<path d="M23.8005 0C29.4131 0 34.0004 4.58726 34.0004 10.1999C34.0004 15.8125 29.4671 20.3998 23.8005 20.3998C18.1878 20.3998 13.6006 15.8125 13.6006 10.1999" fill="#F7981D"/>
<path d="M23.7993 0C29.412 0 33.9992 4.58726 33.9992 10.1999C33.9992 15.8125 29.4659 20.3998 23.7993 20.3998" fill="#FF8500"/>
<path d="M10.092 0C4.53329 0.0539677 0 4.58726 0 10.1999C0 15.8125 4.53329 20.3998 10.1999 20.3998C12.8443 20.3998 15.2189 19.3744 17.0538 17.7554C17.4316 17.4316 17.7554 17.0538 18.0792 16.676H15.9744C15.7046 16.3522 15.4348 15.9744 15.2189 15.6506H18.8347C19.0506 15.3268 19.2665 14.9491 19.4284 14.5713H14.6253C14.4633 14.2475 14.3014 13.8697 14.1935 13.4919H19.8062C20.13 12.4665 20.3458 11.3872 20.3458 10.2539C20.3458 9.49832 20.2379 8.79674 20.13 8.09516H13.8697C13.9237 7.71739 14.0316 7.39358 14.1395 7.01581H19.7522C19.6442 6.63803 19.4823 6.26026 19.3204 5.93645H14.5713C14.7332 5.55868 14.9491 5.23487 15.1649 4.8571H18.7808C18.5649 4.47932 18.2951 4.10155 17.9712 3.77774H15.9744C16.2982 3.39997 16.6221 3.07616 16.9998 2.75235C15.2189 1.07935 12.7903 0.107935 10.1459 0.107935C10.1459 -1.04544e-07 10.1459 0 10.092 0Z" fill="#FF5050"/>
<path d="M0 10.2006C0 15.8133 4.53329 20.4005 10.1999 20.4005C12.8443 20.4005 15.2189 19.3751 17.0538 17.7561C17.4316 17.4323 17.7554 17.0545 18.0792 16.6768H15.9744C15.7046 16.353 15.4348 15.9752 15.2189 15.6514H18.8347C19.0506 15.3276 19.2665 14.9498 19.4284 14.572H14.6253C14.4633 14.2482 14.3014 13.8704 14.1935 13.4927H19.8062C20.13 12.4673 20.3458 11.3879 20.3458 10.2546C20.3458 9.49905 20.2379 8.79747 20.13 8.09589H13.8697C13.9237 7.71811 14.0316 7.39431 14.1395 7.01653H19.7522C19.6442 6.63876 19.4823 6.26098 19.3204 5.93718H14.5713C14.7332 5.5594 14.9491 5.2356 15.1649 4.85782H18.7808C18.5649 4.48005 18.2951 4.10228 17.9712 3.77847H15.9744C16.2982 3.4007 16.6221 3.07689 16.9998 2.75308C15.2189 1.08008 12.7903 0.108664 10.1459 0.108664H10.092" fill="#E52836"/>
<path d="M10.2009 20.4005C12.8454 20.4005 15.2199 19.3751 17.0548 17.7561C17.4326 17.4323 17.7564 17.0545 18.0802 16.6768H15.9755C15.7056 16.353 15.4358 15.9752 15.2199 15.6514H18.8358C19.0516 15.3276 19.2675 14.9498 19.4294 14.572H14.6263C14.4644 14.2482 14.3025 13.8704 14.1945 13.4927H19.8072C20.131 12.4673 20.3469 11.3879 20.3469 10.2546C20.3469 9.49905 20.2389 8.79747 20.131 8.09589H13.8707C13.9247 7.71811 14.0326 7.39431 14.1406 7.01653H19.7532C19.6453 6.63876 19.4834 6.26098 19.3215 5.93718H14.5723C14.7342 5.5594 14.9501 5.2356 15.166 4.85782H18.7818C18.5659 4.48005 18.2961 4.10228 17.9723 3.77847H15.9755C16.2993 3.4007 16.6231 3.07689 17.0009 2.75308C15.2199 1.08008 12.7914 0.108664 10.147 0.108664H10.093" fill="#CB2026"/>
<path d="M13.8147 12.7903L13.9766 11.8728C13.9226 11.8728 13.8147 11.9268 13.7068 11.9268C13.329 11.9268 13.275 11.7109 13.329 11.603L13.6528 9.71412H14.2464L14.4083 8.68873H13.8687L13.9766 8.04112H12.8972C12.8972 8.04112 12.2496 11.603 12.2496 12.0347C12.2496 12.6823 12.6274 12.9522 13.1131 12.9522C13.4369 12.9522 13.7068 12.8442 13.8147 12.7903Z" fill="white"/>
<path d="M14.1938 11.0639C14.1938 12.575 15.2192 12.9527 16.0827 12.9527C16.8922 12.9527 17.216 12.7908 17.216 12.7908L17.4319 11.7654C17.4319 11.7654 16.8383 12.0353 16.2986 12.0353C15.1113 12.0353 15.3272 11.1718 15.3272 11.1718H17.5398C17.5398 11.1718 17.7017 10.4702 17.7017 10.2004C17.7017 9.4988 17.324 8.63532 16.1367 8.63532C15.0033 8.52738 14.1938 9.71467 14.1938 11.0639ZM16.0827 9.4988C16.6763 9.4988 16.5684 10.2004 16.5684 10.2543H15.3811C15.3811 10.2004 15.4891 9.4988 16.0827 9.4988Z" fill="white"/>
<path d="M22.9369 12.7904L23.1528 11.6031C23.1528 11.6031 22.6131 11.873 22.2353 11.873C21.4798 11.873 21.156 11.2793 21.156 10.6317C21.156 9.33649 21.8036 8.63491 22.5591 8.63491C23.0988 8.63491 23.5305 8.95872 23.5305 8.95872L23.6924 7.82539C23.6924 7.82539 23.0448 7.55556 22.4512 7.55556C21.2099 7.55556 19.9687 8.63491 19.9687 10.6857C19.9687 12.0349 20.6163 12.9523 21.9115 12.9523C22.3433 12.9523 22.9369 12.7904 22.9369 12.7904Z" fill="white"/>
<path d="M7.87946 8.52668C7.12391 8.52668 6.58423 8.74255 6.58423 8.74255L6.42233 9.66C6.42233 9.66 6.90804 9.44413 7.60962 9.44413C7.98739 9.44413 8.3112 9.4981 8.3112 9.8219C8.3112 10.0378 8.25723 10.0917 8.25723 10.0917C8.25723 10.0917 7.93342 10.0917 7.77152 10.0917C6.85407 10.0917 5.82868 10.4695 5.82868 11.7108C5.82868 12.6822 6.4763 12.8981 6.85407 12.8981C7.60962 12.8981 7.93342 12.4124 7.98739 12.4124L7.93342 12.8441H8.90484L9.33658 9.87587C9.33658 8.58064 8.25723 8.52668 7.87946 8.52668ZM8.09533 10.9552C8.09533 11.1171 7.98739 11.9806 7.33978 11.9806C7.01597 11.9806 6.90804 11.7108 6.90804 11.5489C6.90804 11.279 7.06994 10.9013 7.87946 10.9013C8.04136 10.9552 8.09533 10.9552 8.09533 10.9552Z" fill="white"/>
<path d="M10.3631 12.8992C10.633 12.8992 11.9822 12.9531 11.9822 11.496C11.9822 10.1468 10.6869 10.4167 10.6869 9.87697C10.6869 9.60714 10.9028 9.4992 11.2806 9.4992C11.4425 9.4992 12.0361 9.55317 12.0361 9.55317L12.198 8.58175C12.198 8.58175 11.8203 8.47381 11.1727 8.47381C10.3631 8.47381 9.55362 8.79762 9.55362 9.87697C9.55362 11.1182 10.9028 11.0103 10.9028 11.496C10.9028 11.8198 10.525 11.8738 10.2552 11.8738C9.76949 11.8738 9.28378 11.7119 9.28378 11.7119L9.12188 12.6833C9.17585 12.7912 9.44569 12.8992 10.3631 12.8992Z" fill="white"/>
<path d="M31.8955 7.6652L31.6797 9.12233C31.6797 9.12233 31.2479 8.58265 30.6543 8.58265C29.6829 8.58265 28.8194 9.76994 28.8194 11.1731C28.8194 12.0366 29.2511 12.954 30.1686 12.954C30.8162 12.954 31.194 12.5223 31.194 12.5223L31.14 12.9001H32.2193L33.0289 7.71917L31.8955 7.6652ZM31.4098 10.5255C31.4098 11.1191 31.14 11.8747 30.5463 11.8747C30.1686 11.8747 29.9527 11.5509 29.9527 11.0112C29.9527 10.1477 30.3305 9.60804 30.8162 9.60804C31.194 9.60804 31.4098 9.87787 31.4098 10.5255Z" fill="white"/>
<path d="M1.99651 12.8461L2.64412 8.96042L2.75206 12.8461H3.5076L4.91076 8.96042L4.31712 12.8461H5.45044L6.31392 7.6652H4.53299L3.45364 10.8493L3.39967 7.6652H1.8346L0.971121 12.8461H1.99651Z" fill="white"/>
<path d="M18.7262 12.8458C19.05 11.0649 19.104 9.60774 19.8595 9.87758C19.9675 9.176 20.1294 8.90616 20.2373 8.63632C20.2373 8.63632 20.1833 8.63632 20.0214 8.63632C19.5357 8.63632 19.1579 9.28393 19.1579 9.28393L19.2659 8.69029H18.2405L17.5389 12.8998H18.7262V12.8458Z" fill="white"/>
<path d="M25.4174 8.52668C24.6618 8.52668 24.1222 8.74255 24.1222 8.74255L23.9603 9.66C23.9603 9.66 24.446 9.44413 25.1476 9.44413C25.5253 9.44413 25.8491 9.4981 25.8491 9.8219C25.8491 10.0378 25.7952 10.0917 25.7952 10.0917C25.7952 10.0917 25.4714 10.0917 25.3095 10.0917C24.392 10.0917 23.3666 10.4695 23.3666 11.7108C23.3666 12.6822 24.0142 12.8981 24.392 12.8981C25.1476 12.8981 25.4714 12.4124 25.5253 12.4124L25.4714 12.8441H26.4428L26.8745 9.87587C26.9285 8.58064 25.7952 8.52668 25.4174 8.52668ZM25.6872 10.9552C25.6872 11.1171 25.5793 11.9806 24.9317 11.9806C24.6079 11.9806 24.4999 11.7108 24.4999 11.5489C24.4999 11.279 24.6618 10.9013 25.4714 10.9013C25.6333 10.9552 25.6333 10.9552 25.6872 10.9552Z" fill="white"/>
<path d="M27.7942 12.8468C28.118 11.0658 28.172 9.60872 28.9276 9.87856C29.0355 9.17698 29.1974 8.90714 29.3053 8.6373C29.3053 8.6373 29.2514 8.6373 29.0895 8.6373C28.6038 8.6373 28.226 9.28491 28.226 9.28491L28.3339 8.69127H27.3085L26.607 12.9007H27.7942V12.8468Z" fill="white"/>
<path d="M12.1419 12.0347C12.1419 12.6823 12.5197 12.9522 13.0054 12.9522C13.3832 12.9522 13.707 12.8442 13.8149 12.7903L13.9769 11.8728C13.9229 11.8728 13.8149 11.9268 13.707 11.9268C13.3292 11.9268 13.2753 11.7109 13.3292 11.603L13.653 9.71412H14.2467L14.4086 8.68873H13.8689L13.9769 8.04112" fill="#DCE5E5"/>
<path d="M14.7323 11.0639C14.7323 12.575 15.218 12.9527 16.0814 12.9527C16.891 12.9527 17.2148 12.7908 17.2148 12.7908L17.4306 11.7654C17.4306 11.7654 16.837 12.0353 16.2973 12.0353C15.11 12.0353 15.3259 11.1718 15.3259 11.1718H17.5386C17.5386 11.1718 17.7005 10.4702 17.7005 10.2004C17.7005 9.4988 17.3227 8.63532 16.1354 8.63532C15.0021 8.52738 14.7323 9.71467 14.7323 11.0639ZM16.0814 9.4988C16.6751 9.4988 16.783 10.2004 16.783 10.2543H15.3799C15.3799 10.2004 15.4878 9.4988 16.0814 9.4988Z" fill="#DCE5E5"/>
<path d="M22.9356 12.7904L23.1515 11.6031C23.1515 11.6031 22.6118 11.873 22.2341 11.873C21.4785 11.873 21.1547 11.2793 21.1547 10.6317C21.1547 9.33649 21.8023 8.63491 22.5579 8.63491C23.0975 8.63491 23.5293 8.95872 23.5293 8.95872L23.6912 7.82539C23.6912 7.82539 23.0436 7.55556 22.4499 7.55556C21.2087 7.55556 20.5071 8.63491 20.5071 10.6857C20.5071 12.0349 20.615 12.9523 21.9103 12.9523C22.342 12.9523 22.9356 12.7904 22.9356 12.7904Z" fill="#DCE5E5"/>
<path d="M6.42037 9.71567C6.42037 9.71567 6.90608 9.4998 7.60766 9.4998C7.98543 9.4998 8.30924 9.55377 8.30924 9.87758C8.30924 10.0934 8.25527 10.1474 8.25527 10.1474C8.25527 10.1474 7.93147 10.1474 7.76956 10.1474C6.85211 10.1474 5.82673 10.5252 5.82673 11.7664C5.82673 12.7379 6.47434 12.9537 6.85211 12.9537C7.60766 12.9537 7.93147 12.468 7.98543 12.468L7.93147 12.8998H8.90289L9.33463 9.93154C9.33463 8.69029 8.25527 8.63632 7.82353 8.63632M8.63305 10.9569C8.63305 11.1188 7.98543 11.9823 7.33782 11.9823C7.01402 11.9823 6.90608 11.7125 6.90608 11.5506C6.90608 11.2807 7.06798 10.903 7.8775 10.903C8.0394 10.9569 8.63305 10.9569 8.63305 10.9569Z" fill="#DCE5E5"/>
<path d="M9.17376 12.7912C9.17376 12.7912 9.49757 12.8992 10.415 12.8992C10.6849 12.8992 12.0341 12.9531 12.0341 11.496C12.0341 10.1468 10.7388 10.4167 10.7388 9.87697C10.7388 9.60714 10.9547 9.4992 11.3325 9.4992C11.4944 9.4992 12.088 9.55317 12.088 9.55317L12.2499 8.58175C12.2499 8.58175 11.8721 8.47381 11.2245 8.47381C10.415 8.47381 10.1452 8.79762 10.1452 9.87697C10.1452 11.1182 10.9547 11.0103 10.9547 11.496C10.9547 11.8198 10.5769 11.8738 10.3071 11.8738" fill="#DCE5E5"/>
<path d="M31.6794 9.12024C31.6794 9.12024 31.2477 8.58057 30.654 8.58057C29.6826 8.58057 29.3588 9.76786 29.3588 11.171C29.3588 12.0345 29.2509 12.952 30.1683 12.952C30.8159 12.952 31.1937 12.5202 31.1937 12.5202L31.1397 12.898H32.2191L33.0286 7.71708M31.6254 10.5234C31.6254 11.117 31.1397 11.8726 30.5461 11.8726C30.1683 11.8726 29.9524 11.5488 29.9524 11.0091C29.9524 10.1456 30.3302 9.60595 30.8159 9.60595C31.1937 9.60595 31.6254 9.87579 31.6254 10.5234Z" fill="#DCE5E5"/>
<path d="M1.99651 12.8461L2.64412 8.96042L2.75206 12.8461H3.5076L4.91076 8.96042L4.31712 12.8461H5.45044L6.31392 7.6652H4.96473L3.45364 10.8493L3.39967 7.6652H2.80602L0.971121 12.8461H1.99651Z" fill="#DCE5E5"/>
<path d="M17.5947 12.8468H18.728C19.0518 11.0658 19.1058 9.60872 19.8614 9.87856C19.9693 9.17698 20.1312 8.90714 20.2391 8.6373C20.2391 8.6373 20.1852 8.6373 20.0233 8.6373C19.5376 8.6373 19.1598 9.28491 19.1598 9.28491L19.2677 8.69127" fill="#DCE5E5"/>
<path d="M23.9632 9.71665C23.9632 9.71665 24.4489 9.50078 25.1505 9.50078C25.5283 9.50078 25.8521 9.55475 25.8521 9.87856C25.8521 10.0944 25.7981 10.1484 25.7981 10.1484C25.7981 10.1484 25.4743 10.1484 25.3124 10.1484C24.3949 10.1484 23.3696 10.5262 23.3696 11.7674C23.3696 12.7388 24.0172 12.9547 24.3949 12.9547C25.1505 12.9547 25.4743 12.469 25.5283 12.469L25.4743 12.9007H26.4457L26.8775 9.93252C26.8775 8.69127 25.7981 8.6373 25.3664 8.6373M26.1759 10.9579C26.1759 11.1198 25.5283 11.9833 24.8807 11.9833C24.5568 11.9833 24.4489 11.7135 24.4489 11.5516C24.4489 11.2817 24.6108 10.9039 25.4203 10.9039C25.6362 10.9579 26.1759 10.9579 26.1759 10.9579Z" fill="#DCE5E5"/>
<path d="M26.6588 12.8468H27.7922C28.116 11.0658 28.1699 9.60872 28.9255 9.87856C29.0334 9.17698 29.1953 8.90714 29.3033 8.6373C29.3033 8.6373 29.2493 8.6373 29.0874 8.6373C28.6017 8.6373 28.2239 9.28491 28.2239 9.28491L28.3318 8.69127" fill="#DCE5E5"/>
</svg>
