<svg width="24" height="24" viewBox="0 0 24 24" fill="none" xmlns="http://www.w3.org/2000/svg">
<g clip-path="url(#clip0_253_25010)">
<path d="M10.4165 8.91113H8.53027V20.9055H10.4165V8.91113Z" fill="#FEC93E"/>
<path d="M10.7391 10.87H8.20623C8.01952 10.87 7.86816 10.7186 7.86816 10.5319V9.38379H11.0771V10.5319C11.0771 10.7186 10.9258 10.87 10.7391 10.87Z" fill="#F7A738"/>
<path d="M11.0771 20.4608H7.86816V19.3127C7.86816 19.126 8.01952 18.9746 8.20623 18.9746H10.7391C10.9258 18.9746 11.0771 19.126 11.0771 19.3127V20.4608Z" fill="#F7A738"/>
<path d="M15.4702 8.91113H13.584V20.9055H15.4702V8.91113Z" fill="#FEC93E"/>
<path d="M15.7938 10.87H13.2609C13.0742 10.87 12.9229 10.7186 12.9229 10.5319V9.38379H16.1318V10.5319C16.1318 10.7186 15.9805 10.87 15.7938 10.87Z" fill="#F7A738"/>
<path d="M16.1318 20.4608H12.9229V19.3127C12.9229 19.126 13.0742 18.9746 13.2609 18.9746H15.7938C15.9805 18.9746 16.1318 19.126 16.1318 19.3127V20.4608Z" fill="#F7A738"/>
<path d="M20.5239 8.91113H18.6377V20.9055H20.5239V8.91113Z" fill="#FEC93E"/>
<path d="M20.8475 10.87H18.3146C18.1279 10.87 17.9766 10.7186 17.9766 10.5319V9.38379H21.1855V10.5319C21.1855 10.7186 21.0342 10.87 20.8475 10.87Z" fill="#F7A738"/>
<path d="M21.1855 20.4608H17.9766V19.3127C17.9766 19.126 18.1279 18.9746 18.3146 18.9746H20.8475C21.0342 18.9746 21.1855 19.126 21.1855 19.3127V20.4608Z" fill="#F7A738"/>
<path d="M5.36183 8.91113H3.47559V20.9055H5.36183V8.91113Z" fill="#FEC93E"/>
<path d="M5.6854 10.87H3.15252C2.96581 10.87 2.81445 10.7186 2.81445 10.5319V9.38379H6.02342V10.5319C6.02342 10.7186 5.8721 10.87 5.6854 10.87Z" fill="#F7A738"/>
<path d="M6.02342 20.4608H2.81445V19.3127C2.81445 19.126 2.96581 18.9746 3.15252 18.9746H5.68535C5.87206 18.9746 6.02342 19.126 6.02342 19.3127V20.4608Z" fill="#F7A738"/>
<path d="M22.5519 9.38419H1.44863C1.2661 9.38419 1.11816 9.23621 1.11816 9.05372V7.64199C1.11816 7.45946 1.26615 7.31152 1.44863 7.31152H22.5519C22.7344 7.31152 22.8823 7.45951 22.8823 7.64199V9.05372C22.8824 9.23621 22.7344 9.38419 22.5519 9.38419Z" fill="#FEC93E"/>
<path d="M22.5517 7.31152H20.2705V9.38424H22.5517C22.7343 9.38424 22.8822 9.23625 22.8822 9.05377V7.64204C22.8822 7.45951 22.7343 7.31152 22.5517 7.31152Z" fill="#EFB635"/>
<path d="M23.0878 21.8987H0.912109V20.9663C0.912109 20.6872 1.13837 20.4609 1.41751 20.4609H22.5824C22.8616 20.4609 23.0878 20.6872 23.0878 20.9663V21.8987H23.0878Z" fill="#FEC93E"/>
<path d="M22.5829 20.4609H20.4766V21.8987H23.0882V20.9663C23.0883 20.6872 22.862 20.4609 22.5829 20.4609Z" fill="#EFB635"/>
<path d="M23.8263 23.3362H0.173625C0.0777186 23.3362 0 23.2584 0 23.1626V22.4038C0 22.1247 0.226265 21.8984 0.505405 21.8984H23.4946C23.7737 21.8984 24 22.1247 24 22.4038V23.1626C24 23.2585 23.9222 23.3362 23.8263 23.3362Z" fill="#F7A738"/>
<path d="M23.4946 21.8984H21.4004V23.3362H23.8264C23.9223 23.3362 24 23.2584 24 23.1625V22.4038C24 22.1247 23.7738 21.8984 23.4946 21.8984Z" fill="#E8932E"/>
<path d="M12.0131 0.705237L0.135429 6.93585C0.0695702 6.9704 0.0283203 7.0386 0.0283203 7.11294V7.75096C0.0283203 7.8614 0.117851 7.95093 0.228289 7.95093H23.7726C23.8831 7.95093 23.9726 7.8614 23.9726 7.75096V7.11121C23.9726 7.03776 23.9323 6.97021 23.8677 6.93529L12.3513 0.707347C12.246 0.650394 12.1192 0.649597 12.0131 0.705237Z" fill="#F7A738"/>
<path d="M23.8671 6.93531L12.3507 0.707371C12.2454 0.650418 12.1186 0.649574 12.0125 0.705214L9.95312 1.78549L21.354 7.95095H23.772C23.8825 7.95095 23.972 7.86142 23.972 7.75094V7.11119C23.972 7.03778 23.9317 6.97023 23.8671 6.93531Z" fill="#E8932E"/>
</g>
<defs>
<clipPath id="clip0_253_25010">
<rect width="24" height="24" fill="white"/>
</clipPath>
</defs>
</svg>
