<svg width="20" height="20" viewBox="0 0 20 20" fill="none" xmlns="http://www.w3.org/2000/svg">
<path d="M13.4309 13.0668L12.9154 13.8401C12.8125 13.9944 12.6764 14.1261 12.4971 14.1735C11.9096 14.3287 10.3501 14.3988 7.97566 12.0244C5.60127 9.65004 5.67135 8.09046 5.82657 7.50302C5.87396 7.32368 6.00565 7.1876 6.15999 7.0847L6.93324 6.5692C7.50894 6.1854 7.66451 5.40757 7.28071 4.83187L5.8203 2.64126C5.4853 2.13876 4.83949 1.94678 4.2844 2.18468L3.6256 2.46702C3.12514 2.6815 2.7169 3.06643 2.4734 3.55343C2.26997 3.96031 2.11229 4.38877 2.09092 4.84317C2.0236 6.27515 2.33759 9.80312 6.26729 13.7328C10.197 17.6625 13.7249 17.9765 15.1569 17.9092C15.6113 17.8878 16.0398 17.7301 16.4466 17.5267C16.9336 17.2832 17.3186 16.8749 17.5331 16.3745L17.8154 15.7157C18.0533 15.1606 17.8613 14.5148 17.3588 14.1798L15.1682 12.7194C14.5925 12.3356 13.8147 12.4911 13.4309 13.0668Z" fill="#7E7171"/>
</svg>
